<svg version="1.1" xmlns="http://www.w3.org/2000/svg" xmlns:xlink="http://www.w3.org/1999/xlink" width="1070.86083984375" height="646"><defs/><g><g transform="translate(-6,-14) scale(1,1)"><path fill="#ffffff" stroke="none" d="M 65.49162571022727 73.68 C 65.49162571022727 68.886167936 69.37746803517273 65 74.1708984375 65 C 78.96432883982727 65 82.85017116477273 68.886167936 82.85017116477273 73.68 C 82.85017116477273 78.473832064 78.96432883982727 82.36 74.1708984375 82.36 C 69.37746803517273 82.36 65.49162571022727 78.473832064 65.49162571022727 73.68 Z"/></g><g transform="translate(-6,-14) scale(1,1)"><path fill="none" stroke="#000000" d="M 65.49162571022727 73.68 C 65.49162571022727 68.886167936 69.37746803517273 65 74.1708984375 65 C 78.96432883982727 65 82.85017116477273 68.886167936 82.85017116477273 73.68 C 82.85017116477273 78.473832064 78.96432883982727 82.36 74.1708984375 82.36 C 69.37746803517273 82.36 65.49162571022727 78.473832064 65.49162571022727 73.68 Z" stroke-miterlimit="10"/></g><g transform="translate(-6,-14) scale(1,1)"><path fill="none" stroke="#000000" d="M 74.1708984375 82.36 L 74.1708984375 99.64" stroke-miterlimit="10"/></g><g transform="translate(-6,-14) scale(1,1)"><path fill="none" stroke="#000000" d="M 64.98108025568182 88.84 L 83.36071661931818 88.84" stroke-miterlimit="10"/></g><g transform="translate(-6,-14) scale(1,1)"><path fill="none" stroke="#000000" d="M 74.1708984375 99.64 L 61.407262073863635 117" stroke-miterlimit="10"/></g><g transform="translate(-6,-14) scale(1,1)"><path fill="none" stroke="#000000" d="M 74.1708984375 99.64 L 86.93453480113637 117" stroke-miterlimit="10"/></g><g transform="translate(-6,-14) scale(1,1)"><g><path fill="none" stroke="none"/><text fill="#000000" stroke="none" font-family="Arial" font-size="13px" font-style="normal" font-weight="bold" text-decoration="none" x="53.937744140625" y="137.5">Cliente</text></g></g><g transform="translate(-6,-14) scale(1,1)"><path fill="#C0C0C0" stroke="none" d="M 215 184 C 215 174.6111584 253.5035072 167 301 167 C 348.4964928 167 387 174.6111584 387 184 C 387 193.3888416 348.4964928 201 301 201 C 253.5035072 201 215 193.3888416 215 184 Z" opacity="0.2"/></g><g transform="translate(-6,-14) scale(1,1)"><path fill="#ffffff" stroke="none" d="M 208 177 C 208 167.6111584 246.5035072 160 294 160 C 341.4964928 160 380 167.6111584 380 177 C 380 186.3888416 341.4964928 194 294 194 C 246.5035072 194 208 186.3888416 208 177 Z"/></g><g transform="translate(-6,-14) scale(1,1)"><path fill="none" stroke="#000000" d="M 208 177 C 208 167.6111584 246.5035072 160 294 160 C 341.4964928 160 380 167.6111584 380 177 C 380 186.3888416 341.4964928 194 294 194 C 246.5035072 194 208 186.3888416 208 177 Z" stroke-miterlimit="10"/></g><g transform="translate(-6,-14) scale(1,1)"><g><path fill="none" stroke="none"/><text fill="#000000" stroke="none" font-family="Arial" font-size="13px" font-style="normal" font-weight="bold" text-decoration="none" x="241.965087890625" y="184">Consulta catalogo</text></g></g><g transform="translate(-6,-14) scale(1,1)"><path fill="#C0C0C0" stroke="none" d="M 199 112 C 199 102.6111584 237.5035072 95 285 95 C 332.4964928 95 371 102.6111584 371 112 C 371 121.3888416 332.4964928 129 285 129 C 237.5035072 129 199 121.3888416 199 112 Z" opacity="0.2"/></g><g transform="translate(-6,-14) scale(1,1)"><path fill="#ffffff" stroke="none" d="M 192 105 C 192 95.6111584 230.5035072 88 278 88 C 325.4964928 88 364 95.6111584 364 105 C 364 114.3888416 325.4964928 122 278 122 C 230.5035072 122 192 114.3888416 192 105 Z"/></g><g transform="translate(-6,-14) scale(1,1)"><path fill="none" stroke="#000000" d="M 192 105 C 192 95.6111584 230.5035072 88 278 88 C 325.4964928 88 364 95.6111584 364 105 C 364 114.3888416 325.4964928 122 278 122 C 230.5035072 122 192 114.3888416 192 105 Z" stroke-miterlimit="10"/></g><g transform="translate(-6,-14) scale(1,1)"><g><path fill="none" stroke="none"/><text fill="#000000" stroke="none" font-family="Arial" font-size="13px" font-style="normal" font-weight="bold" text-decoration="none" x="225.619140625" y="112">Visualizza carrello</text></g></g><g transform="translate(-6,-14) scale(1,1)"><path fill="none" stroke="#000000" d="M 101 103 L 191 104" stroke-miterlimit="10"/></g><g transform="translate(-6,-14) scale(1,1)"><path fill="#C0C0C0" stroke="none" d="M 167 424 C 167 414.6111584 189.6096176 407 217.5 407 C 245.3903824 407 268 414.6111584 268 424 C 268 433.3888416 245.3903824 441 217.5 441 C 189.6096176 441 167 433.3888416 167 424 Z" opacity="0.2"/></g><g transform="translate(-6,-14) scale(1,1)"><path fill="#ffffff" stroke="none" d="M 160 417 C 160 407.6111584 182.6096176 400 210.5 400 C 238.3903824 400 261 407.6111584 261 417 C 261 426.3888416 238.3903824 434 210.5 434 C 182.6096176 434 160 426.3888416 160 417 Z"/></g><g transform="translate(-6,-14) scale(1,1)"><path fill="none" stroke="#000000" d="M 160 417 C 160 407.6111584 182.6096176 400 210.5 400 C 238.3903824 400 261 407.6111584 261 417 C 261 426.3888416 238.3903824 434 210.5 434 C 182.6096176 434 160 426.3888416 160 417 Z" stroke-miterlimit="10"/></g><g transform="translate(-6,-14) scale(1,1)"><g><path fill="none" stroke="none"/><text fill="#000000" stroke="none" font-family="Arial" font-size="13px" font-style="normal" font-weight="bold" text-decoration="none" x="185.569580078125" y="424">Acquista</text></g></g><g transform="translate(-6,-14) scale(1,1)"><path fill="none" stroke="#000000" d="M 142 383 L 174 399" stroke-miterlimit="10"/></g><g transform="translate(-6,-14) scale(1,1)"><path fill="#C0C0C0" stroke="none" d="M 383 384 C 383 374.6111584 424.413656 367 475.5 367 C 526.586344 367 568 374.6111584 568 384 C 568 393.3888416 526.586344 401 475.5 401 C 424.413656 401 383 393.3888416 383 384 Z" opacity="0.2"/></g><g transform="translate(-6,-14) scale(1,1)"><path fill="#ffffff" stroke="none" d="M 376 377 C 376 367.6111584 417.413656 360 468.5 360 C 519.586344 360 561 367.6111584 561 377 C 561 386.3888416 519.586344 394 468.5 394 C 417.413656 394 376 386.3888416 376 377 Z"/></g><g transform="translate(-6,-14) scale(1,1)"><path fill="none" stroke="#000000" d="M 376 377 C 376 367.6111584 417.413656 360 468.5 360 C 519.586344 360 561 367.6111584 561 377 C 561 386.3888416 519.586344 394 468.5 394 C 417.413656 394 376 386.3888416 376 377 Z" stroke-miterlimit="10"/></g><g transform="translate(-6,-14) scale(1,1)"><g><path fill="none" stroke="none"/><text fill="#000000" stroke="none" font-family="Arial" font-size="13px" font-style="normal" font-weight="bold" text-decoration="none" x="411.044189453125" y="384">Effettua Pagamento</text></g></g><g transform="translate(-6,-14) scale(1,1)"><path fill="none" stroke="#000000" d="M 262 409 L 375 391" stroke-miterlimit="10" stroke-dasharray="3"/></g><g transform="translate(-6,-14) scale(1,1)"><path fill="none" stroke="#000000" d="M 365.62604988597025 396.75578485175413 L 375 391 L 364.30166180813904 388.4415708075913" stroke-miterlimit="10"/></g><g transform="translate(-6,-14) scale(1,1)"><g><path fill="none" stroke="none"/><text fill="#000000" stroke="none" font-family="Arial" font-size="13px" font-style="normal" font-weight="normal" text-decoration="none" x="303.5" y="402.5">«include»</text></g></g><g transform="translate(-6,-14) scale(1,1)"><path fill="#C0C0C0" stroke="none" d="M 463 48 C 463 38.6111584 513.8156752 31 576.5 31 C 639.1843248 31 690 38.6111584 690 48 C 690 57.3888416 639.1843248 65 576.5 65 C 513.8156752 65 463 57.3888416 463 48 Z" opacity="0.2"/></g><g transform="translate(-6,-14) scale(1,1)"><path fill="#ffffff" stroke="none" d="M 456 41 C 456 31.6111584 506.8156752 24 569.5 24 C 632.1843248 24 683 31.6111584 683 41 C 683 50.3888416 632.1843248 58 569.5 58 C 506.8156752 58 456 50.3888416 456 41 Z"/></g><g transform="translate(-6,-14) scale(1,1)"><path fill="none" stroke="#000000" d="M 456 41 C 456 31.6111584 506.8156752 24 569.5 24 C 632.1843248 24 683 31.6111584 683 41 C 683 50.3888416 632.1843248 58 569.5 58 C 506.8156752 58 456 50.3888416 456 41 Z" stroke-miterlimit="10"/></g><g transform="translate(-6,-14) scale(1,1)"><g><path fill="none" stroke="none"/><text fill="#000000" stroke="none" font-family="Arial" font-size="13px" font-style="normal" font-weight="bold" text-decoration="none" x="498.69189453125" y="48">Registrazoine al sistema</text></g></g><g transform="translate(-6,-14) scale(1,1)"><path fill="none" stroke="#000000" d="M 455 41 L 368 41" stroke-miterlimit="10" stroke-dasharray="3"/></g><g transform="translate(-6,-14) scale(1,1)"><path fill="none" stroke="#000000" d="M 378.16267485762415 36.790482243984016 L 368 41 L 378.16267485762415 45.209517756015984" stroke-miterlimit="10"/></g><g transform="translate(-6,-14) scale(1,1)"><g><path fill="none" stroke="none"/><text fill="#000000" stroke="none" font-family="Arial" font-size="13px" font-style="normal" font-weight="normal" text-decoration="none" x="383.5" y="40.5">«extend»</text></g></g><g transform="translate(-6,-14) scale(1,1)"><path fill="#ffffff" stroke="none" d="M 69.96843235085227 321.68 C 69.96843235085227 316.886167936 73.85427467579773 313 78.647705078125 313 C 83.44113548045227 313 87.32697780539773 316.886167936 87.32697780539773 321.68 C 87.32697780539773 326.473832064 83.44113548045227 330.36 78.647705078125 330.36 C 73.85427467579773 330.36 69.96843235085227 326.473832064 69.96843235085227 321.68 Z"/></g><g transform="translate(-6,-14) scale(1,1)"><path fill="none" stroke="#000000" d="M 69.96843235085227 321.68 C 69.96843235085227 316.886167936 73.85427467579773 313 78.647705078125 313 C 83.44113548045227 313 87.32697780539773 316.886167936 87.32697780539773 321.68 C 87.32697780539773 326.473832064 83.44113548045227 330.36 78.647705078125 330.36 C 73.85427467579773 330.36 69.96843235085227 326.473832064 69.96843235085227 321.68 Z" stroke-miterlimit="10"/></g><g transform="translate(-6,-14) scale(1,1)"><path fill="none" stroke="#000000" d="M 78.647705078125 330.36 L 78.647705078125 347.64" stroke-miterlimit="10"/></g><g transform="translate(-6,-14) scale(1,1)"><path fill="none" stroke="#000000" d="M 69.45788689630682 336.84 L 87.83752325994318 336.84" stroke-miterlimit="10"/></g><g transform="translate(-6,-14) scale(1,1)"><path fill="none" stroke="#000000" d="M 78.647705078125 347.64 L 65.88406871448863 365" stroke-miterlimit="10"/></g><g transform="translate(-6,-14) scale(1,1)"><path fill="none" stroke="#000000" d="M 78.647705078125 347.64 L 91.41134144176137 365" stroke-miterlimit="10"/></g><g transform="translate(-6,-14) scale(1,1)"><g><path fill="none" stroke="none"/><text fill="#000000" stroke="none" font-family="Arial" font-size="13px" font-style="normal" font-weight="bold" text-decoration="none" x="24.806884765625" y="385.5">Cliente autenticato</text></g></g><g transform="translate(-6,-14) scale(1,1)"><path fill="none" stroke="#000000" d="M 77 311 L 75 144" stroke-miterlimit="10"/></g><g transform="translate(-6,-14) scale(1,1)"><path fill="#FFFFFF" stroke="none" d="M 83.66183173142136 164.22307274022774 L 75 144 L 66.824968083741 164.4247118258287"/></g><g transform="translate(-6,-14) scale(1,1)"><path fill="none" stroke="#000000" d="M 83.66183173142136 164.22307274022774 L 75 144 L 66.824968083741 164.4247118258287 L 83.66183173142136 164.22307274022774" stroke-miterlimit="10"/></g><g transform="translate(-6,-14) scale(1,1)"><path fill="#C0C0C0" stroke="none" d="M 159 312 C 159 302.6111584 208.4725296 295 269.5 295 C 330.5274704 295 380 302.6111584 380 312 C 380 321.3888416 330.5274704 329 269.5 329 C 208.4725296 329 159 321.3888416 159 312 Z" opacity="0.2"/></g><g transform="translate(-6,-14) scale(1,1)"><path fill="#ffffff" stroke="none" d="M 152 305 C 152 295.6111584 201.4725296 288 262.5 288 C 323.5274704 288 373 295.6111584 373 305 C 373 314.3888416 323.5274704 322 262.5 322 C 201.4725296 322 152 314.3888416 152 305 Z"/></g><g transform="translate(-6,-14) scale(1,1)"><path fill="none" stroke="#000000" d="M 152 305 C 152 295.6111584 201.4725296 288 262.5 288 C 323.5274704 288 373 295.6111584 373 305 C 373 314.3888416 323.5274704 322 262.5 322 C 201.4725296 322 152 314.3888416 152 305 Z" stroke-miterlimit="10"/></g><g transform="translate(-6,-14) scale(1,1)"><g><path fill="none" stroke="none"/><text fill="#000000" stroke="none" font-family="Arial" font-size="13px" font-style="normal" font-weight="bold" text-decoration="none" x="194.21826171875" y="312">Visualizza suggerimenti</text></g></g><g transform="translate(-6,-14) scale(1,1)"><path fill="none" stroke="#000000" d="M 142 335 L 190 323" stroke-miterlimit="10"/></g><g transform="translate(-6,-14) scale(1,1)"><path fill="#C0C0C0" stroke="none" d="M 191 640 C 191 630.6111584 261.51514399999996 623 348.5 623 C 435.48485600000004 623 506 630.6111584 506 640 C 506 649.3888416 435.48485600000004 657 348.5 657 C 261.51514399999996 657 191 649.3888416 191 640 Z" opacity="0.2"/></g><g transform="translate(-6,-14) scale(1,1)"><path fill="#ffffff" stroke="none" d="M 184 633 C 184 623.6111584 254.515144 616 341.5 616 C 428.48485600000004 616 499 623.6111584 499 633 C 499 642.3888416 428.48485600000004 650 341.5 650 C 254.515144 650 184 642.3888416 184 633 Z"/></g><g transform="translate(-6,-14) scale(1,1)"><path fill="none" stroke="#000000" d="M 184 633 C 184 623.6111584 254.515144 616 341.5 616 C 428.48485600000004 616 499 623.6111584 499 633 C 499 642.3888416 428.48485600000004 650 341.5 650 C 254.515144 650 184 642.3888416 184 633 Z" stroke-miterlimit="10"/></g><g transform="translate(-6,-14) scale(1,1)"><g><path fill="none" stroke="none"/><text fill="#000000" stroke="none" font-family="Arial" font-size="13px" font-style="normal" font-weight="bold" text-decoration="none" x="241.41650390625" y="640">Aggiorna numero pezzi magazzino</text></g></g><g transform="translate(-6,-14) scale(1,1)"><path fill="#ffffff" stroke="none" d="M 85.25114719460227 545.6800000000001 C 85.25114719460227 540.8861679360001 89.13698951954773 537 93.930419921875 537 C 98.72385032420227 537 102.60969264914773 540.8861679360001 102.60969264914773 545.6800000000001 C 102.60969264914773 550.473832064 98.72385032420227 554.36 93.930419921875 554.36 C 89.13698951954773 554.36 85.25114719460227 550.473832064 85.25114719460227 545.6800000000001 Z"/></g><g transform="translate(-6,-14) scale(1,1)"><path fill="none" stroke="#000000" d="M 85.25114719460227 545.6800000000001 C 85.25114719460227 540.8861679360001 89.13698951954773 537 93.930419921875 537 C 98.72385032420227 537 102.60969264914773 540.8861679360001 102.60969264914773 545.6800000000001 C 102.60969264914773 550.473832064 98.72385032420227 554.36 93.930419921875 554.36 C 89.13698951954773 554.36 85.25114719460227 550.473832064 85.25114719460227 545.6800000000001 Z" stroke-miterlimit="10"/></g><g transform="translate(-6,-14) scale(1,1)"><path fill="none" stroke="#000000" d="M 93.930419921875 554.36 L 93.930419921875 571.64" stroke-miterlimit="10"/></g><g transform="translate(-6,-14) scale(1,1)"><path fill="none" stroke="#000000" d="M 84.74060174005682 560.84 L 103.12023810369318 560.84" stroke-miterlimit="10"/></g><g transform="translate(-6,-14) scale(1,1)"><path fill="none" stroke="#000000" d="M 93.930419921875 571.64 L 81.16678355823863 589" stroke-miterlimit="10"/></g><g transform="translate(-6,-14) scale(1,1)"><path fill="none" stroke="#000000" d="M 93.930419921875 571.64 L 106.69405628551137 589" stroke-miterlimit="10"/></g><g transform="translate(-6,-14) scale(1,1)"><g><path fill="none" stroke="none"/><text fill="#000000" stroke="none" font-family="Arial" font-size="13px" font-style="normal" font-weight="bold" text-decoration="none" x="40.08642578125" y="609.5">Personale negozio</text></g></g><g transform="translate(-6,-14) scale(1,1)"><path fill="none" stroke="#000000" d="M 157 590 L 264 615" stroke-miterlimit="10"/></g><g transform="translate(-6,-14) scale(1,1)"><path fill="#C0C0C0" stroke="none" d="M 239 552 C 239 542.6111584 283.77152 535 339 535 C 394.22848 535 439 542.6111584 439 552 C 439 561.3888416 394.22848 569 339 569 C 283.77152 569 239 561.3888416 239 552 Z" opacity="0.2"/></g><g transform="translate(-6,-14) scale(1,1)"><path fill="#ffffff" stroke="none" d="M 232 545 C 232 535.6111584 276.77152 528 332 528 C 387.22848 528 432 535.6111584 432 545 C 432 554.3888416 387.22848 562 332 562 C 276.77152 562 232 554.3888416 232 545 Z"/></g><g transform="translate(-6,-14) scale(1,1)"><path fill="none" stroke="#000000" d="M 232 545 C 232 535.6111584 276.77152 528 332 528 C 387.22848 528 432 535.6111584 432 545 C 432 554.3888416 387.22848 562 332 562 C 276.77152 562 232 554.3888416 232 545 Z" stroke-miterlimit="10"/></g><g transform="translate(-6,-14) scale(1,1)"><g><path fill="none" stroke="none"/><text fill="#000000" stroke="none" font-family="Arial" font-size="13px" font-style="normal" font-weight="bold" text-decoration="none" x="271.300537109375" y="552">Inserisci nel catalogo</text></g></g><g transform="translate(-6,-14) scale(1,1)"><path fill="none" stroke="#000000" d="M 157 567 L 231 558" stroke-miterlimit="10"/></g><g transform="translate(-6,-14) scale(1,1)"><path fill="#C0C0C0" stroke="none" d="M 207 48 C 207 38.6111584 244.3842192 31 290.5 31 C 336.6157808 31 374 38.6111584 374 48 C 374 57.3888416 336.6157808 65 290.5 65 C 244.3842192 65 207 57.3888416 207 48 Z" opacity="0.2"/></g><g transform="translate(-6,-14) scale(1,1)"><path fill="#ffffff" stroke="none" d="M 200 41 C 200 31.6111584 237.3842192 24 283.5 24 C 329.6157808 24 367 31.6111584 367 41 C 367 50.3888416 329.6157808 58 283.5 58 C 237.3842192 58 200 50.3888416 200 41 Z"/></g><g transform="translate(-6,-14) scale(1,1)"><path fill="none" stroke="#000000" d="M 200 41 C 200 31.6111584 237.3842192 24 283.5 24 C 329.6157808 24 367 31.6111584 367 41 C 367 50.3888416 329.6157808 58 283.5 58 C 237.3842192 58 200 50.3888416 200 41 Z" stroke-miterlimit="10"/></g><g transform="translate(-6,-14) scale(1,1)"><g><path fill="none" stroke="none"/><text fill="#000000" stroke="none" font-family="Arial" font-size="13px" font-style="normal" font-weight="bold" text-decoration="none" x="232.925048828125" y="48">Accedi al sistema</text></g></g><g transform="translate(-6,-14) scale(1,1)"><path fill="none" stroke="#000000" d="M 222 59 L 101 95" stroke-miterlimit="10"/></g><g transform="translate(-6,-14) scale(1,1)"><path fill="none" stroke="#000000" d="M 101 112 L 240 159" stroke-miterlimit="10"/></g><g transform="translate(-6,-14) scale(1,1)"><path fill="#C0C0C0" stroke="none" d="M 671 376 C 671 366.6111584 726.7405424 359 795.5 359 C 864.2594576 359 920 366.6111584 920 376 C 920 385.3888416 864.2594576 393 795.5 393 C 726.7405424 393 671 385.3888416 671 376 Z" opacity="0.2"/></g><g transform="translate(-6,-14) scale(1,1)"><path fill="#ffffff" stroke="none" d="M 664 369 C 664 359.6111584 719.7405424 352 788.5 352 C 857.2594576 352 913 359.6111584 913 369 C 913 378.3888416 857.2594576 386 788.5 386 C 719.7405424 386 664 378.3888416 664 369 Z"/></g><g transform="translate(-6,-14) scale(1,1)"><path fill="none" stroke="#000000" d="M 664 369 C 664 359.6111584 719.7405424 352 788.5 352 C 857.2594576 352 913 359.6111584 913 369 C 913 378.3888416 857.2594576 386 788.5 386 C 719.7405424 386 664 378.3888416 664 369 Z" stroke-miterlimit="10"/></g><g transform="translate(-6,-14) scale(1,1)"><g><path fill="none" stroke="none"/><text fill="#000000" stroke="none" font-family="Arial" font-size="13px" font-style="normal" font-weight="bold" text-decoration="none" x="710.084228515625" y="376">Effettua pagamento Paypal</text></g></g><g transform="translate(-6,-14) scale(1,1)"><path fill="#C0C0C0" stroke="none" d="M 607 312 C 607 302.6111584 687.3648784 295 786.5 295 C 885.6351216 295 966 302.6111584 966 312 C 966 321.3888416 885.6351216 329 786.5 329 C 687.3648784 329 607 321.3888416 607 312 Z" opacity="0.2"/></g><g transform="translate(-6,-14) scale(1,1)"><path fill="#ffffff" stroke="none" d="M 600 305 C 600 295.6111584 680.3648784 288 779.5 288 C 878.6351216 288 959 295.6111584 959 305 C 959 314.3888416 878.6351216 322 779.5 322 C 680.3648784 322 600 314.3888416 600 305 Z"/></g><g transform="translate(-6,-14) scale(1,1)"><path fill="none" stroke="#000000" d="M 600 305 C 600 295.6111584 680.3648784 288 779.5 288 C 878.6351216 288 959 295.6111584 959 305 C 959 314.3888416 878.6351216 322 779.5 322 C 680.3648784 322 600 314.3888416 600 305 Z" stroke-miterlimit="10"/></g><g transform="translate(-6,-14) scale(1,1)"><g><path fill="none" stroke="none"/><text fill="#000000" stroke="none" font-family="Arial" font-size="13px" font-style="normal" font-weight="bold" text-decoration="none" x="666.0419921875" y="312">Effettua pagamento con carta di credito</text></g></g><g transform="translate(-6,-14) scale(1,1)"><path fill="#C0C0C0" stroke="none" d="M 639 440 C 639 430.6111584 705.9334224 423 788.5 423 C 871.0665776 423 938 430.6111584 938 440 C 938 449.3888416 871.0665776 457 788.5 457 C 705.9334224 457 639 449.3888416 639 440 Z" opacity="0.2"/></g><g transform="translate(-6,-14) scale(1,1)"><path fill="#ffffff" stroke="none" d="M 632 433 C 632 423.6111584 698.9334224 416 781.5 416 C 864.0665776 416 931 423.6111584 931 433 C 931 442.3888416 864.0665776 450 781.5 450 C 698.9334224 450 632 442.3888416 632 433 Z"/></g><g transform="translate(-6,-14) scale(1,1)"><path fill="none" stroke="#000000" d="M 632 433 C 632 423.6111584 698.9334224 416 781.5 416 C 864.0665776 416 931 423.6111584 931 433 C 931 442.3888416 864.0665776 450 781.5 450 C 698.9334224 450 632 442.3888416 632 433 Z" stroke-miterlimit="10"/></g><g transform="translate(-6,-14) scale(1,1)"><g><path fill="none" stroke="none"/><text fill="#000000" stroke="none" font-family="Arial" font-size="13px" font-style="normal" font-weight="bold" text-decoration="none" x="688.268798828125" y="440">Effettua pagamento con bonifico</text></g></g><g transform="translate(-6,-14) scale(1,1)"><path fill="none" stroke="#000000" d="M 663 372 L 562 375" stroke-miterlimit="10"/></g><g transform="translate(-6,-14) scale(1,1)"><path fill="#FFFFFF" stroke="none" d="M 582.0664293364608 365.98121883596093 L 562 375 L 582.5663495771416 382.8118669388826"/></g><g transform="translate(-6,-14) scale(1,1)"><path fill="none" stroke="#000000" d="M 582.0664293364608 365.98121883596093 L 562 375 L 582.5663495771416 382.8118669388826 L 582.0664293364608 365.98121883596093" stroke-miterlimit="10"/></g><g transform="translate(-6,-14) scale(1,1)"><path fill="none" stroke="#000000" d="M 701 323 L 546 359" stroke-miterlimit="10"/></g><g transform="translate(-6,-14) scale(1,1)"><path fill="#FFFFFF" stroke="none" d="M 563.893673210854 346.2009196024415 L 546 359 L 567.7030542097964 362.6024211256655"/></g><g transform="translate(-6,-14) scale(1,1)"><path fill="none" stroke="#000000" d="M 563.893673210854 346.2009196024415 L 546 359 L 567.7030542097964 362.6024211256655 L 563.893673210854 346.2009196024415" stroke-miterlimit="10"/></g><g transform="translate(-6,-14) scale(1,1)"><path fill="none" stroke="#000000" d="M 680 415 L 562 394" stroke-miterlimit="10"/></g><g transform="translate(-6,-14) scale(1,1)"><path fill="#FFFFFF" stroke="none" d="M 583.4860525091007 389.2724691882367 L 562 394 L 580.5358025253814 405.8500643348491"/></g><g transform="translate(-6,-14) scale(1,1)"><path fill="none" stroke="#000000" d="M 583.4860525091007 389.2724691882367 L 562 394 L 580.5358025253814 405.8500643348491 L 583.4860525091007 389.2724691882367" stroke-miterlimit="10"/></g><g transform="translate(-6,-14) scale(1,1)"><path fill="#ffffff" stroke="none" d="M 1000.7775143821023 321.68 C 1000.7775143821023 316.886167936 1004.6633567070477 313 1009.456787109375 313 C 1014.2502175117023 313 1018.1360598366477 316.886167936 1018.1360598366477 321.68 C 1018.1360598366477 326.473832064 1014.2502175117023 330.36 1009.456787109375 330.36 C 1004.6633567070477 330.36 1000.7775143821023 326.473832064 1000.7775143821023 321.68 Z"/></g><g transform="translate(-6,-14) scale(1,1)"><path fill="none" stroke="#000000" d="M 1000.7775143821023 321.68 C 1000.7775143821023 316.886167936 1004.6633567070477 313 1009.456787109375 313 C 1014.2502175117023 313 1018.1360598366477 316.886167936 1018.1360598366477 321.68 C 1018.1360598366477 326.473832064 1014.2502175117023 330.36 1009.456787109375 330.36 C 1004.6633567070477 330.36 1000.7775143821023 326.473832064 1000.7775143821023 321.68 Z" stroke-miterlimit="10"/></g><g transform="translate(-6,-14) scale(1,1)"><path fill="none" stroke="#000000" d="M 1009.456787109375 330.36 L 1009.456787109375 347.64" stroke-miterlimit="10"/></g><g transform="translate(-6,-14) scale(1,1)"><path fill="none" stroke="#000000" d="M 1000.2669689275568 336.84 L 1018.6466052911932 336.84" stroke-miterlimit="10"/></g><g transform="translate(-6,-14) scale(1,1)"><path fill="none" stroke="#000000" d="M 1009.456787109375 347.64 L 996.6931507457386 365" stroke-miterlimit="10"/></g><g transform="translate(-6,-14) scale(1,1)"><path fill="none" stroke="#000000" d="M 1009.456787109375 347.64 L 1022.2204234730114 365" stroke-miterlimit="10"/></g><g transform="translate(-6,-14) scale(1,1)"><g><path fill="none" stroke="none"/><text fill="#000000" stroke="none" font-family="Arial" font-size="13px" font-style="normal" font-weight="bold" text-decoration="none" x="989.582275390625" y="385.5">Paypal</text></g></g><g transform="translate(-6,-14) scale(1,1)"><path fill="none" stroke="#000000" d="M 914 359 L 983 353" stroke-miterlimit="10"/></g><g transform="translate(-6,-14) scale(1,1)"><path fill="#ffffff" stroke="none" d="M 992.4093503196023 425.68 C 992.4093503196023 420.886167936 996.2951926445477 417 1001.088623046875 417 C 1005.8820534492023 417 1009.7678957741477 420.886167936 1009.7678957741477 425.68 C 1009.7678957741477 430.473832064 1005.8820534492023 434.36 1001.088623046875 434.36 C 996.2951926445477 434.36 992.4093503196023 430.473832064 992.4093503196023 425.68 Z"/></g><g transform="translate(-6,-14) scale(1,1)"><path fill="none" stroke="#000000" d="M 992.4093503196023 425.68 C 992.4093503196023 420.886167936 996.2951926445477 417 1001.088623046875 417 C 1005.8820534492023 417 1009.7678957741477 420.886167936 1009.7678957741477 425.68 C 1009.7678957741477 430.473832064 1005.8820534492023 434.36 1001.088623046875 434.36 C 996.2951926445477 434.36 992.4093503196023 430.473832064 992.4093503196023 425.68 Z" stroke-miterlimit="10"/></g><g transform="translate(-6,-14) scale(1,1)"><path fill="none" stroke="#000000" d="M 1001.088623046875 434.36 L 1001.088623046875 451.64" stroke-miterlimit="10"/></g><g transform="translate(-6,-14) scale(1,1)"><path fill="none" stroke="#000000" d="M 991.8988048650568 440.84 L 1010.2784412286932 440.84" stroke-miterlimit="10"/></g><g transform="translate(-6,-14) scale(1,1)"><path fill="none" stroke="#000000" d="M 1001.088623046875 451.64 L 988.3249866832386 469" stroke-miterlimit="10"/></g><g transform="translate(-6,-14) scale(1,1)"><path fill="none" stroke="#000000" d="M 1001.088623046875 451.64 L 1013.8522594105114 469" stroke-miterlimit="10"/></g><g transform="translate(-6,-14) scale(1,1)"><g><path fill="none" stroke="none"/><text fill="#000000" stroke="none" font-family="Arial" font-size="13px" font-style="normal" font-weight="bold" text-decoration="none" x="982.658203125" y="489.5">Banca</text></g></g><g transform="translate(-6,-14) scale(1,1)"><path fill="#ffffff" stroke="none" d="M 976.7511471946023 201.68 C 976.7511471946023 196.886167936 980.6369895195477 193 985.430419921875 193 C 990.2238503242023 193 994.1096926491477 196.886167936 994.1096926491477 201.68 C 994.1096926491477 206.47383206400002 990.2238503242023 210.36 985.430419921875 210.36 C 980.6369895195477 210.36 976.7511471946023 206.47383206400002 976.7511471946023 201.68 Z"/></g><g transform="translate(-6,-14) scale(1,1)"><path fill="none" stroke="#000000" d="M 976.7511471946023 201.68 C 976.7511471946023 196.886167936 980.6369895195477 193 985.430419921875 193 C 990.2238503242023 193 994.1096926491477 196.886167936 994.1096926491477 201.68 C 994.1096926491477 206.47383206400002 990.2238503242023 210.36 985.430419921875 210.36 C 980.6369895195477 210.36 976.7511471946023 206.47383206400002 976.7511471946023 201.68 Z" stroke-miterlimit="10"/></g><g transform="translate(-6,-14) scale(1,1)"><path fill="none" stroke="#000000" d="M 985.430419921875 210.36 L 985.430419921875 227.64" stroke-miterlimit="10"/></g><g transform="translate(-6,-14) scale(1,1)"><path fill="none" stroke="#000000" d="M 976.2406017400568 216.84 L 994.6202381036932 216.84" stroke-miterlimit="10"/></g><g transform="translate(-6,-14) scale(1,1)"><path fill="none" stroke="#000000" d="M 985.430419921875 227.64 L 972.6667835582386 245" stroke-miterlimit="10"/></g><g transform="translate(-6,-14) scale(1,1)"><path fill="none" stroke="#000000" d="M 985.430419921875 227.64 L 998.1940562855114 245" stroke-miterlimit="10"/></g><g transform="translate(-6,-14) scale(1,1)"><g><path fill="none" stroke="none"/><text fill="#000000" stroke="none" font-family="Arial" font-size="13px" font-style="normal" font-weight="bold" text-decoration="none" x="919.313232421875" y="265.5">Società carta di credito</text></g></g><g transform="translate(-6,-14) scale(1,1)"><path fill="none" stroke="#000000" d="M 829 287 L 903 260" stroke-miterlimit="10"/></g><g transform="translate(-6,-14) scale(1,1)"><path fill="#C0C0C0" stroke="none" d="M 375 480 C 375 470.6111584 432.7552608 463 504 463 C 575.2447392 463 633 470.6111584 633 480 C 633 489.3888416 575.2447392 497 504 497 C 432.7552608 497 375 489.3888416 375 480 Z" opacity="0.2"/></g><g transform="translate(-6,-14) scale(1,1)"><path fill="#ffffff" stroke="none" d="M 368 473 C 368 463.6111584 425.7552608 456 497 456 C 568.2447392 456 626 463.6111584 626 473 C 626 482.3888416 568.2447392 490 497 490 C 425.7552608 490 368 482.3888416 368 473 Z"/></g><g transform="translate(-6,-14) scale(1,1)"><path fill="none" stroke="#000000" d="M 368 473 C 368 463.6111584 425.7552608 456 497 456 C 568.2447392 456 626 463.6111584 626 473 C 626 482.3888416 568.2447392 490 497 490 C 425.7552608 490 368 482.3888416 368 473 Z" stroke-miterlimit="10"/></g><g transform="translate(-6,-14) scale(1,1)"><g><path fill="none" stroke="none"/><text fill="#000000" stroke="none" font-family="Arial" font-size="13px" font-style="normal" font-weight="bold" text-decoration="none" x="441.7119140625" y="480">Effettua spedizione</text></g></g><g transform="translate(-6,-14) scale(1,1)"><path fill="none" stroke="#000000" d="M 262 427 L 405 455" stroke-miterlimit="10" stroke-dasharray="3"/></g><g transform="translate(-6,-14) scale(1,1)"><path fill="none" stroke="#000000" d="M 394.2178302337125 457.17825965645886 L 405 455 L 395.8355924680864 448.9161168166207" stroke-miterlimit="10"/></g><g transform="translate(-6,-14) scale(1,1)"><g><path fill="none" stroke="none"/><text fill="#000000" stroke="none" font-family="Arial" font-size="13px" font-style="normal" font-weight="normal" text-decoration="none" x="304.5" y="451.5">«include»</text></g></g><g transform="translate(-6,-14) scale(1,1)"><path fill="#ffffff" stroke="none" d="M 675.4611081321023 529.6800000000001 C 675.4611081321023 524.8861679360001 679.3469504570477 521 684.140380859375 521 C 688.9338112617023 521 692.8196535866477 524.8861679360001 692.8196535866477 529.6800000000001 C 692.8196535866477 534.473832064 688.9338112617023 538.36 684.140380859375 538.36 C 679.3469504570477 538.36 675.4611081321023 534.473832064 675.4611081321023 529.6800000000001 Z"/></g><g transform="translate(-6,-14) scale(1,1)"><path fill="none" stroke="#000000" d="M 675.4611081321023 529.6800000000001 C 675.4611081321023 524.8861679360001 679.3469504570477 521 684.140380859375 521 C 688.9338112617023 521 692.8196535866477 524.8861679360001 692.8196535866477 529.6800000000001 C 692.8196535866477 534.473832064 688.9338112617023 538.36 684.140380859375 538.36 C 679.3469504570477 538.36 675.4611081321023 534.473832064 675.4611081321023 529.6800000000001 Z" stroke-miterlimit="10"/></g><g transform="translate(-6,-14) scale(1,1)"><path fill="none" stroke="#000000" d="M 684.140380859375 538.36 L 684.140380859375 555.64" stroke-miterlimit="10"/></g><g transform="translate(-6,-14) scale(1,1)"><path fill="none" stroke="#000000" d="M 674.9505626775568 544.84 L 693.3301990411932 544.84" stroke-miterlimit="10"/></g><g transform="translate(-6,-14) scale(1,1)"><path fill="none" stroke="#000000" d="M 684.140380859375 555.64 L 671.3767444957386 573" stroke-miterlimit="10"/></g><g transform="translate(-6,-14) scale(1,1)"><path fill="none" stroke="#000000" d="M 684.140380859375 555.64 L 696.9040172230114 573" stroke-miterlimit="10"/></g><g transform="translate(-6,-14) scale(1,1)"><g><path fill="none" stroke="none"/><text fill="#000000" stroke="none" font-family="Arial" font-size="13px" font-style="normal" font-weight="bold" text-decoration="none" x="632.483154296875" y="593.5">Corriere espresso</text></g></g><g transform="translate(-6,-14) scale(1,1)"><path fill="none" stroke="#000000" d="M 536 491 L 623 531" stroke-miterlimit="10"/></g><g transform="translate(-6,-14) scale(1,1)"><path fill="none" stroke="#000000" d="M 932 448 L 975 452" stroke-miterlimit="10"/></g><g transform="translate(-6,-14) scale(1,1)"><path fill="#C0C0C0" stroke="none" d="M 463 176 C 463 166.6111584 495.6832096 159 536 159 C 576.3167904 159 609 166.6111584 609 176 C 609 185.3888416 576.3167904 193 536 193 C 495.6832096 193 463 185.3888416 463 176 Z" opacity="0.2"/></g><g transform="translate(-6,-14) scale(1,1)"><path fill="#ffffff" stroke="none" d="M 456 169 C 456 159.6111584 488.6832096 152 529 152 C 569.3167904 152 602 159.6111584 602 169 C 602 178.3888416 569.3167904 186 529 186 C 488.6832096 186 456 178.3888416 456 169 Z"/></g><g transform="translate(-6,-14) scale(1,1)"><path fill="none" stroke="#000000" d="M 456 169 C 456 159.6111584 488.6832096 152 529 152 C 569.3167904 152 602 159.6111584 602 169 C 602 178.3888416 569.3167904 186 529 186 C 488.6832096 186 456 178.3888416 456 169 Z" stroke-miterlimit="10"/></g><g transform="translate(-6,-14) scale(1,1)"><g><path fill="none" stroke="none"/><text fill="#000000" stroke="none" font-family="Arial" font-size="13px" font-style="normal" font-weight="bold" text-decoration="none" x="506.96728515625" y="176">Ricerca</text></g></g><g transform="translate(-6,-14) scale(1,1)"><path fill="none" stroke="#000000" d="M 455 172 L 381 174" stroke-miterlimit="10" stroke-dasharray="3"/></g><g transform="translate(-6,-14) scale(1,1)"><path fill="none" stroke="#000000" d="M 391.04523595471755 169.5174522184309 L 381 174 L 391.27269439553993 177.93341452885946" stroke-miterlimit="10"/></g><g transform="translate(-6,-14) scale(1,1)"><g><path fill="none" stroke="none"/><text fill="#000000" stroke="none" font-family="Arial" font-size="13px" font-style="normal" font-weight="normal" text-decoration="none" x="391.5" y="208.5">«extend»</text></g></g><g transform="translate(-6,-14) scale(1,1)"><path fill="#C0C0C0" stroke="none" d="M 647 88 C 647 78.6111584 686.8466528 71 736 71 C 785.1533472 71 825 78.6111584 825 88 C 825 97.3888416 785.1533472 105 736 105 C 686.8466528 105 647 97.3888416 647 88 Z" opacity="0.2"/></g><g transform="translate(-6,-14) scale(1,1)"><path fill="#ffffff" stroke="none" d="M 640 81 C 640 71.6111584 679.8466528 64 729 64 C 778.1533472 64 818 71.6111584 818 81 C 818 90.3888416 778.1533472 98 729 98 C 679.8466528 98 640 90.3888416 640 81 Z"/></g><g transform="translate(-6,-14) scale(1,1)"><path fill="none" stroke="#000000" d="M 640 81 C 640 71.6111584 679.8466528 64 729 64 C 778.1533472 64 818 71.6111584 818 81 C 818 90.3888416 778.1533472 98 729 98 C 679.8466528 98 640 90.3888416 640 81 Z" stroke-miterlimit="10"/></g><g transform="translate(-6,-14) scale(1,1)"><g><path fill="none" stroke="none"/><text fill="#000000" stroke="none" font-family="Arial" font-size="13px" font-style="normal" font-weight="bold" text-decoration="none" x="673.721435546875" y="88">Ricerca per genere</text></g></g><g transform="translate(-6,-14) scale(1,1)"><path fill="#C0C0C0" stroke="none" d="M 751 136 C 751 126.6111584 791.0705104 119 840.5 119 C 889.9294896 119 930 126.6111584 930 136 C 930 145.3888416 889.9294896 153 840.5 153 C 791.0705104 153 751 145.3888416 751 136 Z" opacity="0.2"/></g><g transform="translate(-6,-14) scale(1,1)"><path fill="#ffffff" stroke="none" d="M 744 129 C 744 119.6111584 784.0705104 112 833.5 112 C 882.9294896 112 923 119.6111584 923 129 C 923 138.3888416 882.9294896 146 833.5 146 C 784.0705104 146 744 138.3888416 744 129 Z"/></g><g transform="translate(-6,-14) scale(1,1)"><path fill="none" stroke="#000000" d="M 744 129 C 744 119.6111584 784.0705104 112 833.5 112 C 882.9294896 112 923 119.6111584 923 129 C 923 138.3888416 882.9294896 146 833.5 146 C 784.0705104 146 744 138.3888416 744 129 Z" stroke-miterlimit="10"/></g><g transform="translate(-6,-14) scale(1,1)"><g><path fill="none" stroke="none"/><text fill="#000000" stroke="none" font-family="Arial" font-size="13px" font-style="normal" font-weight="bold" text-decoration="none" x="778.951416015625" y="136">Ricerca per titolare</text></g></g><g transform="translate(-6,-14) scale(1,1)"><path fill="#C0C0C0" stroke="none" d="M 727 192 C 727 182.6111584 766.3989376 175 815 175 C 863.6010624 175 903 182.6111584 903 192 C 903 201.3888416 863.6010624 209 815 209 C 766.3989376 209 727 201.3888416 727 192 Z" opacity="0.2"/></g><g transform="translate(-6,-14) scale(1,1)"><path fill="#ffffff" stroke="none" d="M 720 185 C 720 175.6111584 759.3989376 168 808 168 C 856.6010624 168 896 175.6111584 896 185 C 896 194.3888416 856.6010624 202 808 202 C 759.3989376 202 720 194.3888416 720 185 Z"/></g><g transform="translate(-6,-14) scale(1,1)"><path fill="none" stroke="#000000" d="M 720 185 C 720 175.6111584 759.3989376 168 808 168 C 856.6010624 168 896 175.6111584 896 185 C 896 194.3888416 856.6010624 202 808 202 C 759.3989376 202 720 194.3888416 720 185 Z" stroke-miterlimit="10"/></g><g transform="translate(-6,-14) scale(1,1)"><g><path fill="none" stroke="none"/><text fill="#000000" stroke="none" font-family="Arial" font-size="13px" font-style="normal" font-weight="bold" text-decoration="none" x="753.451416015625" y="192">Ricerca per prezzo</text></g></g><g transform="translate(-6,-14) scale(1,1)"><path fill="#C0C0C0" stroke="none" d="M 631 240 C 631 230.6111584 676.4430928 223 732.5 223 C 788.5569072 223 834 230.6111584 834 240 C 834 249.3888416 788.5569072 257 732.5 257 C 676.4430928 257 631 249.3888416 631 240 Z" opacity="0.2"/></g><g transform="translate(-6,-14) scale(1,1)"><path fill="#ffffff" stroke="none" d="M 624 233 C 624 223.6111584 669.4430928 216 725.5 216 C 781.5569072 216 827 223.6111584 827 233 C 827 242.3888416 781.5569072 250 725.5 250 C 669.4430928 250 624 242.3888416 624 233 Z"/></g><g transform="translate(-6,-14) scale(1,1)"><path fill="none" stroke="#000000" d="M 624 233 C 624 223.6111584 669.4430928 216 725.5 216 C 781.5569072 216 827 223.6111584 827 233 C 827 242.3888416 781.5569072 250 725.5 250 C 669.4430928 250 624 242.3888416 624 233 Z" stroke-miterlimit="10"/></g><g transform="translate(-6,-14) scale(1,1)"><g><path fill="none" stroke="none"/><text fill="#000000" stroke="none" font-family="Arial" font-size="13px" font-style="normal" font-weight="bold" text-decoration="none" x="663.372314453125" y="240">Ricerca per musicista</text></g></g><g transform="translate(-6,-14) scale(1,1)"><path fill="none" stroke="#000000" d="M 688 99 L 570 151" stroke-miterlimit="10"/></g><g transform="translate(-6,-14) scale(1,1)"><path fill="#FFFFFF" stroke="none" d="M 585.2044006408154 135.09949053792388 L 570 151 L 591.9944928619525 150.50777673204277"/></g><g transform="translate(-6,-14) scale(1,1)"><path fill="none" stroke="#000000" d="M 585.2044006408154 135.09949053792388 L 570 151 L 591.9944928619525 150.50777673204277 L 585.2044006408154 135.09949053792388" stroke-miterlimit="10"/></g><g transform="translate(-6,-14) scale(1,1)"><path fill="none" stroke="#000000" d="M 743 141 L 603 159" stroke-miterlimit="10"/></g><g transform="translate(-6,-14) scale(1,1)"><path fill="#FFFFFF" stroke="none" d="M 622.0857989142214 148.0577753721693 L 603 159 L 624.2330190722143 164.75837660100325"/></g><g transform="translate(-6,-14) scale(1,1)"><path fill="none" stroke="#000000" d="M 622.0857989142214 148.0577753721693 L 603 159 L 624.2330190722143 164.75837660100325 L 622.0857989142214 148.0577753721693" stroke-miterlimit="10"/></g><g transform="translate(-6,-14) scale(1,1)"><path fill="none" stroke="#000000" d="M 670 215 L 584 187" stroke-miterlimit="10"/></g><g transform="translate(-6,-14) scale(1,1)"><path fill="#FFFFFF" stroke="none" d="M 605.9332103068084 185.2870243325387 L 584 187 L 600.7203784516043 201.29786503066543"/></g><g transform="translate(-6,-14) scale(1,1)"><path fill="none" stroke="#000000" d="M 605.9332103068084 185.2870243325387 L 584 187 L 600.7203784516043 201.29786503066543 L 605.9332103068084 185.2870243325387" stroke-miterlimit="10"/></g><g transform="translate(-6,-14) scale(1,1)"><path fill="none" stroke="#000000" d="M 719 180 L 603 173" stroke-miterlimit="10"/></g><g transform="translate(-6,-14) scale(1,1)"><path fill="#FFFFFF" stroke="none" d="M 623.7955658610235 165.82055430274488 L 603 173 L 622.7813203766308 182.6280509012515"/></g><g transform="translate(-6,-14) scale(1,1)"><path fill="none" stroke="#000000" d="M 623.7955658610235 165.82055430274488 L 603 173 L 622.7813203766308 182.6280509012515 L 623.7955658610235 165.82055430274488" stroke-miterlimit="10"/></g><g transform="translate(-6,-14) scale(1,1)"><path fill="#C0C0C0" stroke="none" d="M 407 264 C 407 254.6111584 448.1897984 247 499 247 C 549.8102016 247 591 254.6111584 591 264 C 591 273.3888416 549.8102016 281 499 281 C 448.1897984 281 407 273.3888416 407 264 Z" opacity="0.2"/></g><g transform="translate(-6,-14) scale(1,1)"><path fill="#ffffff" stroke="none" d="M 400 257 C 400 247.6111584 441.1897984 240 492 240 C 542.8102016 240 584 247.6111584 584 257 C 584 266.3888416 542.8102016 274 492 274 C 441.1897984 274 400 266.3888416 400 257 Z"/></g><g transform="translate(-6,-14) scale(1,1)"><path fill="none" stroke="#000000" d="M 400 257 C 400 247.6111584 441.1897984 240 492 240 C 542.8102016 240 584 247.6111584 584 257 C 584 266.3888416 542.8102016 274 492 274 C 441.1897984 274 400 266.3888416 400 257 Z" stroke-miterlimit="10"/></g><g transform="translate(-6,-14) scale(1,1)"><g><path fill="none" stroke="none"/><text fill="#000000" stroke="none" font-family="Arial" font-size="13px" font-style="normal" font-weight="bold" text-decoration="none" x="436.71826171875" y="264">Aggiungi al carrello</text></g></g><g transform="translate(-6,-14) scale(1,1)"><path fill="none" stroke="#000000" d="M 447 239 L 339 195" stroke-miterlimit="10" stroke-dasharray="3"/></g><g transform="translate(-6,-14) scale(1,1)"><path fill="none" stroke="#000000" d="M 349.99981348690363 194.9359433584003 L 339 195 L 346.82333759403195 202.73274782272162" stroke-miterlimit="10"/></g><g transform="translate(-6,-14) scale(1,1)"><g><path fill="none" stroke="none"/><text fill="#000000" stroke="none" font-family="Arial" font-size="13px" font-style="normal" font-weight="normal" text-decoration="none" x="354.5" y="250.5">«extend»</text></g></g><g transform="translate(-6,-14) scale(1,1)"><path fill="#C0C0C0" stroke="none" d="M 439 104 C 439 94.6111584 474.1456432 87 517.5 87 C 560.8543568 87 596 94.6111584 596 104 C 596 113.3888416 560.8543568 121 517.5 121 C 474.1456432 121 439 113.3888416 439 104 Z" opacity="0.2"/></g><g transform="translate(-6,-14) scale(1,1)"><path fill="#ffffff" stroke="none" d="M 432 97 C 432 87.6111584 467.1456432 80 510.5 80 C 553.8543568 80 589 87.6111584 589 97 C 589 106.3888416 553.8543568 114 510.5 114 C 467.1456432 114 432 106.3888416 432 97 Z"/></g><g transform="translate(-6,-14) scale(1,1)"><path fill="none" stroke="#000000" d="M 432 97 C 432 87.6111584 467.1456432 80 510.5 80 C 553.8543568 80 589 87.6111584 589 97 C 589 106.3888416 553.8543568 114 510.5 114 C 467.1456432 114 432 106.3888416 432 97 Z" stroke-miterlimit="10"/></g><g transform="translate(-6,-14) scale(1,1)"><g><path fill="none" stroke="none"/><text fill="#000000" stroke="none" font-family="Arial" font-size="13px" font-style="normal" font-weight="bold" text-decoration="none" x="464.263671875" y="104">Rimuovi articolo</text></g></g><g transform="translate(-6,-14) scale(1,1)"><path fill="none" stroke="#000000" d="M 431 100 L 365 102" stroke-miterlimit="10" stroke-dasharray="3"/></g><g transform="translate(-6,-14) scale(1,1)"><path fill="none" stroke="#000000" d="M 375.0305093940522 97.48459511274682 L 365 102 L 375.2855146268693 105.8997677957101" stroke-miterlimit="10"/></g><g transform="translate(-6,-14) scale(1,1)"><g><path fill="none" stroke="none"/><text fill="#000000" stroke="none" font-family="Arial" font-size="13px" font-style="normal" font-weight="normal" text-decoration="none" x="371.5" y="136.5">«extend»</text></g></g></g></svg>